<?xml version="1.0" encoding="UTF-8" standalone="no"?>
<svg width="256" height="256" viewBox="0 0 256 256" version="1.1" xmlns="http://www.w3.org/2000/svg" style="fill-rule:evenodd;clip-rule:evenodd;stroke-linejoin:round;stroke-miterlimit:2;">
    <g fill="#c9a84c">
        <path d="M121.663,121.107L100.729,92.326L99.522,92.326L93.827,85.603C90.708,87.614 87.396,90.748 85.89,95.448C82.644,105.581 91.885,118.818 97.105,124.806C97.105,124.806 77.842,123.493 67.51,114.907L68.628,110.837L64.736,112.641C64.736,112.641 56.513,106.393 53.411,91.036C50.716,77.7 56.563,66.539 56.563,66.539C56.563,66.539 58.557,75.808 72.613,76.833C78.074,77.231 83.446,74.693 87.057,72.437L84.402,70.256L83.135,59.117L93.693,62.821L95.129,66.905C98.053,64.931 101.81,62.058 102.626,59.846C102.626,59.846 107.114,62.669 106.296,72.573C106.296,72.573 103.679,73.086 103.037,75.793L104.625,77.36L109.435,84.962L109.086,86.255L127.969,112.381L146.852,86.255L146.503,84.962L151.313,77.36L152.901,75.793C152.259,73.086 149.642,72.573 149.642,72.573C148.824,62.669 153.313,59.846 153.313,59.846C154.128,62.058 157.885,64.931 160.809,66.905L162.245,62.821L172.803,59.117L171.536,70.256L168.881,72.437C172.492,74.693 177.864,77.231 183.325,76.833C197.381,75.808 199.375,66.539 199.375,66.539C199.375,66.539 205.222,77.7 202.527,91.036C199.425,106.393 191.202,112.641 191.202,112.641L187.31,110.837L188.429,114.907C178.096,123.493 158.833,124.806 158.833,124.806C164.053,118.818 173.294,105.581 170.048,95.448C168.542,90.748 165.23,87.614 162.111,85.603L156.416,92.326L155.209,92.326L134.276,121.107L165.259,163.975L166.306,164.12L172.375,171.179L171.947,172.634L175.143,174.703L173.843,184.615L164.41,182.843L163.459,179.377L162.039,179.423L156.913,170.887L157.084,169.806L127.969,129.778L98.854,169.806L99.025,170.887L93.899,179.423L92.479,179.377L91.529,182.843L82.095,184.615L80.795,174.703L83.991,172.634L83.563,171.179L89.632,164.12L90.679,163.975L121.663,121.107Z"/>
    </g>
</svg>
